<svg width="41" height="56" viewBox="0 0 41 56" fill="none" xmlns="http://www.w3.org/2000/svg">
<path d="M17.4892 10.5881C17.4649 10.7346 17.5382 10.8688 17.66 10.9301C17.709 10.9544 18.906 11.5043 19.4065 13.1043C19.9194 14.765 22.6306 15.4615 23.4855 15.6324V15.9744C23.4855 16.0111 23.4855 16.0353 23.4978 16.0601H15.4983C15.5107 16.0358 15.5107 15.9991 15.5107 15.9744V15.7304C16.4631 15.5472 16.7319 14.4725 16.7319 13.8864V9.36743C16.7319 9.19662 16.5977 9.06201 16.4265 9.06201H12.2495C12.0787 9.06201 11.9441 9.19619 11.9441 9.36743V13.8864C11.9441 14.4725 12.2128 15.5472 13.1653 15.7304V15.9744C13.1653 16.0111 13.1653 16.0353 13.1776 16.0601H9.96545C9.97781 16.0358 9.97781 15.9991 9.97781 15.9744V15.7304C10.9303 15.5472 11.199 14.4725 11.199 13.8864V9.36743C11.199 9.19662 11.0648 9.06201 10.8936 9.06201H6.7166C6.54579 9.06201 6.41118 9.19619 6.41118 9.36743V13.8864C6.41118 14.4725 6.67996 15.5472 7.63239 15.7304V15.9744C7.63239 16.0111 7.63239 16.0353 7.64474 16.0601H5.53198C5.36117 16.0601 5.22656 16.1942 5.22656 16.3655V17.7456C5.22656 17.9164 5.36074 18.051 5.53198 18.051L34.7584 18.0505C34.9292 18.0505 35.0638 17.9164 35.0638 17.7451V16.365C35.0638 16.1942 34.9297 16.0596 34.7584 16.0596H27.3574C27.3697 16.0353 27.3697 15.9987 27.3697 15.974V15.632C28.2246 15.4488 30.9482 14.7647 31.4487 13.1038C31.9496 11.4916 33.1461 10.9421 33.1952 10.9297C33.3294 10.8688 33.4026 10.7342 33.3783 10.5876C33.3541 10.4411 33.2195 10.3436 33.0853 10.3436H25.4398L17.7822 10.344C17.6357 10.344 17.5139 10.4415 17.4892 10.5881ZM12.5553 13.8858V9.6722H16.1215V13.8858C16.1215 13.9348 16.1091 15.1437 15.2056 15.1437C15.0348 15.1437 14.9002 15.2779 14.9002 15.4491V15.6689H13.7765V15.4491C13.7765 15.2783 13.6423 15.1437 13.4711 15.1437C12.5796 15.1437 12.5553 13.9344 12.5553 13.8858ZM7.03489 13.8858V9.6722H10.601V13.8858C10.601 13.9348 10.5887 15.1437 9.6852 15.1437C9.51439 15.1437 9.37979 15.2779 9.37979 15.4491V15.6689H8.25607V15.4491C8.25607 15.2783 8.12189 15.1437 7.95066 15.1437C7.04719 15.1437 7.03489 13.9344 7.03489 13.8858ZM34.4534 17.452H5.85065V16.6827H34.4534V17.452ZM25.4276 10.9544H32.1084C31.6689 11.3573 31.1679 11.9924 30.8749 12.933C30.472 14.2398 27.9558 14.9358 27.0157 15.0947C26.8691 15.119 26.7592 15.2413 26.7592 15.4001V15.6808H24.097V15.4001C24.097 15.2536 23.9871 15.1194 23.8406 15.0947C22.9 14.9358 20.3844 14.2398 19.9813 12.933C19.6883 11.9925 19.1873 11.3574 18.7478 10.9544H25.4276Z" fill="#484C5B"/>
<path d="M34.7586 37.1887H32.4993C33.0977 36.7858 34.0749 35.6621 34.0749 32.5598C34.0749 30.1659 33.6229 28.3828 33.2323 26.8072C32.9393 25.6593 32.6948 24.6578 32.6948 23.6807V20.725C32.6948 20.5542 32.5606 20.4196 32.3893 20.4196H29.825C29.6542 20.4196 29.5196 20.5537 29.5196 20.725V23.6807C29.5196 24.6578 29.2755 25.6593 28.982 26.8072C28.591 28.3828 28.1395 30.1659 28.1395 32.5598C28.1395 35.6621 29.1286 36.7858 29.7151 37.1887H24.1703C25.2207 36.81 27.0771 35.8819 27.0771 33.9766C27.0771 32.6331 26.3687 31.5827 25.7578 30.6545C25.2203 29.8605 24.7198 29.1035 24.7198 28.2729C24.7198 26.624 25.7821 26.3552 25.8187 26.3433C25.9653 26.3067 26.0752 26.1725 26.0509 26.0137C26.0266 25.8548 25.9043 25.7449 25.7455 25.7449H17.2207C17.0618 25.7449 16.94 25.8671 16.9153 26.0137C16.891 26.1602 17.0009 26.3067 17.1474 26.3433C17.1598 26.3433 18.2464 26.6121 18.2464 28.2729C18.2464 29.0912 17.7455 29.8485 17.2083 30.6545C16.5856 31.5826 15.8891 32.6331 15.8891 33.9766C15.8891 35.8819 17.7454 36.81 18.7958 37.1887H12.3961C13.2753 36.6759 15.4251 35.0393 15.4251 31.4975C15.4251 29.1526 14.4727 27.8581 13.642 26.7102C12.8846 25.6721 12.2253 24.7682 12.2253 23.2292C12.2253 20.0783 13.1292 19.5042 13.1292 19.5042C13.2514 19.4433 13.3247 19.2968 13.288 19.1622C13.2514 19.028 13.1292 18.93 12.995 18.93H8.85505C8.70851 18.93 8.58627 19.0276 8.54963 19.1622C8.513 19.2964 8.57391 19.4429 8.70851 19.5042C8.72087 19.5042 9.6124 20.0903 9.6124 23.2415C9.6124 24.7805 8.95301 25.6839 8.19568 26.7225C7.36506 27.8704 6.41256 29.1649 6.41256 31.5098C6.41256 35.0516 8.56196 36.6759 9.44153 37.201H5.54565C5.37484 37.201 5.24023 37.3352 5.24023 37.5065V38.8865C5.24023 39.0573 5.37442 39.1919 5.54565 39.1919L34.7579 39.1915C34.9287 39.1915 35.0633 39.0573 35.0633 38.8861V37.506C35.0633 37.3229 34.9292 37.1887 34.7579 37.1887L34.7586 37.1887ZM16.512 33.9766C16.512 32.8162 17.1347 31.8881 17.7332 30.9965C18.3193 30.1174 18.8688 29.2867 18.8688 28.2853C18.8688 27.3815 18.5881 26.7587 18.2337 26.3677H24.7313C24.3773 26.7706 24.0962 27.3815 24.0962 28.2853C24.0962 29.2991 24.6456 30.1174 25.2318 30.9965C25.8302 31.9004 26.453 32.8286 26.453 33.9766C26.453 35.9675 23.6804 36.7125 23.363 36.7858H19.5895C19.2722 36.7125 16.512 35.9794 16.512 33.9766ZM28.7502 32.5598C28.7502 30.2392 29.1898 28.4927 29.5808 26.9542C29.8738 25.7697 30.1426 24.7315 30.1426 23.6811V21.0307H32.0969V23.6811C32.0969 24.7434 32.3534 25.7695 32.6588 26.9542C33.0498 28.4932 33.4894 30.2397 33.4894 32.5598C33.4894 36.1016 32.1583 36.7244 31.9751 36.7977H30.29C30.0689 36.7125 28.7502 36.0893 28.7502 32.5598ZM7.0228 31.4975C7.0228 29.3481 7.86535 28.2002 8.68356 27.0764C9.44092 26.0384 10.2225 24.9756 10.2225 23.2292C10.2225 21.1897 9.8562 20.1026 9.51415 19.5408H12.3106C11.9809 20.1027 11.6023 21.1897 11.6023 23.2292C11.6023 24.9757 12.3839 26.0384 13.1412 27.0764C13.9595 28.2002 14.802 29.3604 14.802 31.4975C14.802 35.2468 12.2497 36.6026 11.8463 36.7858H9.97759C9.56312 36.6022 7.02266 35.2468 7.02266 31.4975H7.0228ZM34.4533 38.5689H5.85055V37.7992H34.4533V38.5689Z" fill="#484C5B"/>
<path d="M34.7586 47.2645H33.2686C33.2809 47.2279 33.2809 47.2036 33.2809 47.167V46.9229C34.2334 46.7398 34.5021 45.6651 34.5021 45.079V40.56C34.5021 40.3892 34.3679 40.2546 34.1967 40.2546H30.0197C29.8489 40.2546 29.7143 40.3888 29.7143 40.56V45.079C29.7143 45.6651 29.9831 46.7397 30.9355 46.9229V47.167C30.9355 47.2036 30.9479 47.2403 30.9479 47.2645H24.7803C24.7927 47.2279 24.7927 47.2036 24.7927 47.167V46.813C25.4768 46.6056 27.3817 45.8972 27.7484 44.2726C28.1024 42.6603 28.9819 42.0984 28.9943 42.0984C29.1166 42.0252 29.1651 41.891 29.1285 41.7564C29.0919 41.6222 28.9696 41.5366 28.8355 41.5366H17.7826C17.6484 41.5366 17.5261 41.6222 17.4895 41.7564C17.4529 41.8906 17.5019 42.0252 17.6237 42.0984C17.6603 42.1227 18.5029 42.6603 18.8697 44.2726C19.236 45.8968 21.1413 46.6052 21.8253 46.813V47.167C21.8253 47.2036 21.8377 47.2403 21.8377 47.2645H13.264C13.2763 47.2279 13.2763 47.2036 13.2763 47.167L13.2759 46.8373C13.8501 46.471 15.8163 45.0785 16.1337 43.1613C16.3658 41.7812 16.6589 41.4881 16.7198 41.4391C16.8663 41.4268 16.9762 41.3169 16.9886 41.1703C17.0009 41.0115 16.9029 40.8773 16.7445 40.8406C16.7202 40.8406 16.6955 40.8283 16.6469 40.8406H6.75441H6.65686C6.49798 40.8773 6.40043 41.0115 6.41279 41.1703C6.42514 41.3169 6.54697 41.4268 6.68156 41.4391C6.74247 41.4881 7.02361 41.7812 7.26768 43.1613C7.59737 45.0666 9.56364 46.4586 10.1254 46.8373V47.167C10.1254 47.2036 10.1378 47.2403 10.1378 47.2645H5.52124C5.35043 47.2645 5.21582 47.3987 5.21582 47.57V48.95C5.21582 49.1209 5.35 49.2555 5.52124 49.2555H34.7586C34.9294 49.2555 35.064 49.1213 35.064 48.95V47.57C35.064 47.3991 34.9298 47.2645 34.7586 47.2645ZM30.3252 45.0785V40.8525H33.8913V45.0662C33.8913 45.1152 33.879 46.324 32.9755 46.324C32.8047 46.324 32.6701 46.4582 32.6701 46.6294V46.8492H31.5464V46.6294C31.5464 46.4586 31.4122 46.324 31.241 46.324C30.3375 46.3364 30.3252 45.1275 30.3252 45.0785ZM19.468 44.138C19.2605 43.1855 18.8818 42.5381 18.5521 42.1351H28.0783C27.7486 42.5381 27.3699 43.1732 27.1625 44.138C26.8204 45.7013 24.4513 46.2755 24.4265 46.2755C24.2923 46.3121 24.1944 46.4344 24.1944 46.5686V46.8493H22.436V46.5686C22.436 46.422 22.3385 46.2998 22.2039 46.2755C22.1672 46.2755 19.81 45.7013 19.468 44.138ZM7.87748 43.0633C7.75523 42.3549 7.60871 41.8173 7.42554 41.451H15.9993C15.8161 41.8174 15.6696 42.3549 15.5473 43.0633C15.2176 44.9686 12.848 46.3854 12.8237 46.4097C12.7261 46.4587 12.6772 46.5686 12.6772 46.6785V46.8616H10.7476V46.6785C10.7476 46.5686 10.6867 46.471 10.6011 46.4097C10.5768 46.3973 8.20724 44.9806 7.87748 43.0633ZM34.453 48.6447H5.85032V47.8754H34.453V48.6447Z" fill="#484C5B"/>
<path d="M39.5944 4.42104C39.0935 3.9691 34.3184 0 20.1635 0C6.00862 0 1.23318 3.96905 0.732656 4.42104C0.268361 4.83635 0 5.44675 0 6.06992V53.591C0 54.8245 1.00143 55.8137 2.22268 55.8137H38.0802C39.3137 55.8137 40.3029 54.8122 40.3029 53.591L40.3025 6.06883C40.3272 5.44608 40.0584 4.84763 39.5945 4.42039L39.5944 4.42104ZM39.7162 53.5909C39.7162 54.4824 38.9955 55.2031 38.104 55.2031H2.23446C1.34292 55.2031 0.622214 54.4824 0.622214 53.5909V6.06981C0.622214 5.61787 0.817734 5.17828 1.14742 4.87282C1.62365 4.43323 6.24019 0.61022 20.1628 0.61022C34.0978 0.61022 38.7028 4.43282 39.1782 4.87282C39.5203 5.17823 39.7034 5.61782 39.7034 6.06981L39.7039 53.5909H39.7162Z" fill="#484C5B"/>
<path d="M36.3208 6.8269C34.7575 5.92301 30.0558 3.84689 20.1624 3.84689C10.1842 3.84689 5.5306 5.92302 4.00396 6.81457C3.90641 6.86356 3.85742 6.97345 3.85742 7.08335V51.6733C3.85742 51.8441 3.9916 51.9787 4.16284 51.9787H36.1852C36.356 51.9787 36.4906 51.8445 36.4906 51.6733V7.09535C36.4783 6.97352 36.4174 6.87598 36.3194 6.82699L36.3208 6.8269ZM35.8692 51.3557H4.45643V7.25436C6.09299 6.33812 10.6486 4.45755 20.1623 4.45755C29.6028 4.45755 34.2074 6.36291 35.8682 7.26679L35.8692 51.3557Z" fill="#484C5B"/>
</svg>
