<svg width="53" height="56" viewBox="0 0 53 56" fill="none" xmlns="http://www.w3.org/2000/svg">
<path fill-rule="evenodd" clip-rule="evenodd" d="M26.5001 0.000149918C27.4755 0.000149918 28.267 0.78414 28.267 1.75035C28.267 4.08825 27.8109 5.44935 26.6273 7.32556C25.4295 9.06166 24.6416 10.3391 24.7332 12.2504C24.6841 13.9895 25.2141 15.1062 26.2067 16.5447C27.705 18.7848 28.2669 20.1776 28.2669 22.7504C28.2669 25.0742 27.8073 26.4254 26.6236 28.2558C25.4222 29.9568 24.6414 31.1919 24.7332 33.1032C24.6841 34.8353 25.2176 35.9837 26.2066 37.4468C27.7049 39.7319 28.2668 41.1423 28.2668 43.7502C28.2668 44.7159 27.4754 45.4998 26.4999 45.4998C25.5245 45.4998 24.7331 44.7158 24.7331 43.7502C24.7828 41.993 24.2457 40.8416 23.2525 39.368C21.7584 37.0893 21.1999 35.6859 21.1999 33.1031C21.1999 30.7575 21.6625 29.393 22.8497 27.5555C24.0405 25.865 24.8254 24.6329 24.7332 22.7502C24.7829 21.0351 24.2564 19.922 23.2704 18.4974C21.7656 16.2504 21.2 14.847 21.2 12.2502C21.2 9.91171 21.6555 8.55061 22.8397 6.6744C24.034 4.9383 24.8254 3.6609 24.7332 1.7502C24.7332 0.783991 25.5246 0 26.5 0L26.5001 0.000149918ZM5.30018 0.000149918C6.27559 0.000149918 7.06704 0.78414 7.06704 1.75035C7.06704 4.08825 6.61098 5.44935 5.42738 7.32556C4.22955 9.06166 3.4417 10.3391 3.53331 12.2504C3.48422 13.9895 4.01422 15.1062 5.00679 16.5447C6.50509 18.7848 7.06696 20.1776 7.06696 22.7504C7.06696 25.0742 6.60735 26.4254 5.42367 28.2558C4.2223 29.9568 3.44147 31.1919 3.53324 33.1032C3.48414 34.8353 4.01769 35.9837 5.00671 37.4468C6.50501 39.7319 7.06689 41.1423 7.06689 43.7502C7.06689 44.7159 6.27543 45.4998 5.30002 45.4998C4.32462 45.4998 3.53316 44.7158 3.53316 43.7502C3.58285 41.993 3.04575 40.8416 2.05261 39.368C0.558435 37.0893 0 35.6859 0 33.1031C0 30.7575 0.462568 29.393 1.64981 27.5555C2.84053 25.865 3.62549 24.6329 3.53327 22.7502C3.58296 21.0351 3.05651 19.922 2.07044 18.4974C0.565628 16.2504 0.000120152 14.847 0.000120152 12.2502C0.000120152 9.91171 0.455586 8.55061 1.63978 6.6744C2.83405 4.9383 3.62546 3.6609 3.53324 1.7502C3.53324 0.783991 4.32469 0 5.3001 0L5.30018 0.000149918ZM47.7 0.000149918C48.6754 0.000149918 49.4669 0.78414 49.4669 1.75035C49.4669 4.08825 49.0108 5.44935 47.8272 7.32556C46.6294 9.06166 45.8415 10.3391 45.9332 12.2504C45.8841 13.9895 46.4141 15.1062 47.4066 16.5447C48.9049 18.7848 49.4668 20.1776 49.4668 22.7504C49.4668 25.0742 49.0072 26.4254 47.8235 28.2558C46.6221 29.9568 45.8413 31.1919 45.9331 33.1032C45.884 34.8353 46.4175 35.9837 47.4066 37.4468C48.9049 39.7319 49.4667 41.1423 49.4667 43.7502C49.4667 44.7159 48.6753 45.4998 47.6999 45.4998C46.7245 45.4998 45.933 44.7158 45.933 43.7502C45.9827 41.993 45.4456 40.8416 44.4524 39.368C42.9583 37.0893 42.3998 35.6859 42.3998 33.1031C42.3998 30.7575 42.8624 29.393 44.0497 27.5555C45.2404 25.865 46.0253 24.6329 45.9331 22.7502C45.9828 21.0351 45.4564 19.922 44.4703 18.4974C42.9655 16.2504 42.4 14.847 42.4 12.2502C42.4 9.91171 42.8554 8.55061 44.0396 6.6744C45.2339 4.9383 46.0253 3.6609 45.9331 1.7502C45.9331 0.783991 46.7245 0 47.6999 0L47.7 0.000149918ZM51.2331 52.5002C52.2086 52.5002 53 53.2842 53 54.2504C53 55.216 52.2086 56 51.2331 56H1.76766C0.792255 56 0.000801781 55.216 0.000801781 54.2504C0.000801781 53.2842 0.792255 52.5002 1.76766 52.5002H51.2331Z" fill="#484C5B"/>
</svg>
