<svg width="34" height="56" viewBox="0 0 34 56" fill="none" xmlns="http://www.w3.org/2000/svg">
<path d="M20.0756 0.000459018C20.4114 -0.0124322 20.6965 0.247733 20.7195 0.588357C20.7207 0.604764 20.7207 0.604764 20.7219 0.648124C20.7288 0.837187 20.7226 1.07313 20.6934 1.3411C20.6492 1.73838 20.5622 2.13253 20.4191 2.50672C20.2699 2.89853 20.0652 3.25126 19.7979 3.55323C19.4998 3.88918 19.1325 4.15246 18.7132 4.35208C18.0285 4.63372 18.4024 4.50872 17.5858 4.70599V10.0159C18.0858 9.20999 18.8059 8.60295 19.5764 8.08064C20.0149 7.82361 20.4899 7.6318 20.9953 7.4986C22.4247 7.22008 21.5638 7.33688 23.5925 7.29704L24.446 7.40759C24.7465 7.45993 24.9722 7.51384 25.1042 7.55173C25.4277 7.64509 25.6192 7.98221 25.5369 8.31307C25.4934 8.48808 25.405 8.77597 25.2646 9.14042C25.0315 9.74434 24.7318 10.3478 24.356 10.915C23.8014 11.7526 23.1286 12.4378 22.322 12.91C21.8835 13.167 21.4077 13.3592 20.9027 13.4924C19.8183 13.7944 18.6882 13.7432 17.5858 13.6002V21.4718L17.58 21.5015C27.1135 21.8968 33.5332 29.3422 34 38.7358C34 48.2707 26.3889 56 17 56C7.6111 56 0 48.2706 0 38.7358C0.157327 29.4735 7.22303 21.9735 16.3491 21.5055L16.3426 21.4719V18.4364C15.9375 18.4215 16.2299 18.4364 15.4686 18.354C14.6274 18.2352 13.7888 18.018 12.9992 17.675C12.1853 17.3215 11.4664 16.8516 10.8732 16.2492C10.2797 15.6469 9.81691 14.9172 9.4696 14.0906C9.13188 13.2886 8.91724 12.4367 8.80031 11.5828C8.72838 11.0515 8.70453 10.6198 8.70645 10.3335V10.323C8.71222 9.98196 8.98302 9.70657 9.31882 9.7015C9.32228 9.7015 9.32228 9.7015 9.32959 9.70072C9.61078 9.69876 10.0366 9.72298 10.5589 9.79681C11.4005 9.91556 12.239 10.1328 13.0291 10.4757C13.8431 10.8293 14.5612 11.2992 15.1547 11.9012C15.6352 12.3988 16.0456 12.9696 16.3425 13.6004V9.91872L15.9074 9.85232C15.3509 9.74997 14.7946 9.582 14.2684 9.33083C13.6895 9.05426 13.1836 8.69293 12.7764 8.23311C12.4109 7.82061 12.1298 7.33583 11.924 6.79559C11.7247 6.27411 11.6032 5.72328 11.5416 5.16627C11.5005 4.79126 11.4912 4.4604 11.5009 4.19751C11.5028 4.13969 11.5028 4.13969 11.5043 4.11977C11.527 3.77954 11.812 3.51937 12.1479 3.53187V3.53148C12.3106 3.53773 12.5764 3.56469 12.9114 3.6268C13.4672 3.72914 14.0246 3.89711 14.5507 4.14828C15.1296 4.42485 15.6351 4.78696 16.0424 5.246L16.3424 5.65967V4.02415L16.3447 4.01009C16.3459 3.70305 16.3409 3.88939 16.3739 3.45305C16.4174 3.05577 16.5043 2.66163 16.6474 2.28743C16.7967 1.89563 17.0013 1.54289 17.2686 1.24092C17.5667 0.904974 17.9341 0.64169 18.3534 0.442077C18.9981 0.133873 19.6293 0.0170714 20.0758 0.00066112L20.0756 0.000459018ZM18.8262 22.8628C18.6978 23.1444 18.5408 23.4124 18.3612 23.6636C18.3612 23.6636 17.8815 25.2464 16.803 25.3687C15.724 25.4914 14.4047 25.3687 13.8047 26.3437C13.2054 27.3191 13.3254 29.0242 12.3657 28.0488C11.4056 27.0738 12.2453 27 11.2864 26.0027C10.3267 25.0043 10.0866 25.0043 9.60733 25.0043C9.4027 24.8914 9.49078 24.9695 9.35038 24.7621L7.2502 26.2019C7.56139 26.4343 7.36175 26.3015 7.87526 26.5566C9.31501 27.166 9.64616 28.3722 8.98267 28.3238C8.31914 28.2769 5.62658 28.6496 8.10412 29.3804C10.5824 30.1101 10.3778 30.9667 9.27573 31.3327C8.17295 31.6984 8.40872 30.1171 8.1695 31.6999C7.92948 33.2824 7.68754 33.1633 6.9075 33.4062C6.12704 33.6499 4.68807 34.8683 4.68807 35.7207C4.68807 36.5734 4.20687 37.05 5.16773 37.7809C6.12705 38.511 4.86655 39.8474 4.41342 38.8739C3.86915 37.7051 3.48679 37.0602 2.8887 36.9391C2.28903 36.8164 1.51553 37.7915 2.8887 38.7668C4.26148 39.7418 4.32805 40.3493 4.32805 41.0814C4.32805 41.8126 5.32201 41.8115 6.08438 41.69C6.84676 41.5677 8.41193 43.6392 8.94928 44.4916C9.48587 45.3443 10.4455 46.1963 11.7646 46.5623C13.0836 46.928 13.5643 47.7808 12.8435 48.3901C12.1246 48.999 12.0038 50.4608 11.1645 50.8253C10.3248 51.1909 10.2048 52.2866 9.72553 52.7737L9.64206 52.8714C11.9281 54.1788 14.426 54.6058 17.0001 54.7378C19.0056 54.6347 19.3484 54.6991 21.6851 54.0183C22.3402 53.8276 22.9402 53.4804 23.5668 53.2112C23.6368 52.4327 23.9022 51.6948 24.1092 50.9471C24.46 49.6076 23.2791 48.1463 23.2791 45.7091C23.2791 43.2728 22.5602 44.0048 20.4004 44.0048C18.2421 44.0048 17.2824 42.7857 17.0423 40.4719C16.8031 38.1574 18.8421 35.8434 19.8003 35.1133C20.7593 34.3824 22.0794 33.6511 23.3983 34.3824C24.7174 35.1133 25.1981 35.8445 26.636 35.8445C28.0738 35.8445 28.0749 35.3578 28.9151 34.7488C29.7548 34.1394 27.7149 33.4093 26.5164 33.5355C25.317 33.662 25.5571 32.7999 23.9981 32.191C22.4395 31.5816 21.8402 32.8 21.3594 33.0437C20.8801 33.2867 19.2011 34.0183 19.033 33.0437C18.8653 32.0687 19.9197 31.9472 20.9994 31.9472C22.0783 31.9472 21.1202 31.0948 20.7594 30.4859C20.3993 29.8765 19.6804 29.8765 19.1604 29.4011C18.6407 28.9249 19.7997 28.0487 20.9994 28.3405C22.1992 28.632 21.7184 29.5109 23.0385 29.3898C24.3571 29.2671 23.0385 28.0502 23.0385 26.8706C23.1696 25.6944 24.5309 25.6386 25.404 25.2792C23.5004 23.7304 21.1313 23.3397 18.8265 22.8628L18.8262 22.8628ZM1.25412 38.954C1.30682 42.6033 2.57738 46.0822 4.84181 48.9154C5.38148 49.5908 6.0531 50.1456 6.65889 50.7612C6.5735 50.033 6.37886 49.4104 5.88651 48.8767C5.16759 48.2678 4.68674 47.4154 4.44677 46.4415C4.20751 45.4665 4.80757 44.0063 4.32598 43.0313C3.84747 42.0559 3.84747 42.9703 2.88703 41.5996C1.92694 40.2305 1.92694 40.2305 1.32883 39.1328L1.25412 38.954ZM29.6196 35.7509C29.4581 35.9239 29.4435 35.9845 29.5146 36.2095L30.4747 37.0622C31.4348 37.9146 32.1537 38.2802 31.7937 39.4739C31.4329 40.6673 30.8336 39.6196 29.635 40.5942C28.4357 41.5693 31.0748 41.8123 31.1936 43.2744C31.3129 44.7365 29.7547 44.0045 29.035 45.4666C28.5218 46.5228 28.7111 47.6764 28.6811 48.8065C28.6749 49.0334 28.6272 49.2569 28.6003 49.4819C31.461 46.6537 32.5611 42.6638 32.7565 38.7367L32.6899 37.4015C31.6779 37.3398 31.4037 36.6456 30.594 36.0867C29.9789 35.766 30.3036 35.8789 29.6196 35.7507L29.6196 35.7509ZM27.2221 26.5925C27.6171 27.1836 28.0106 27.7722 28.4341 28.3426C28.6022 28.5242 28.8203 28.5762 29.0619 28.4605L27.2221 26.5925ZM15.4459 22.8152C15.3694 22.8191 15.4075 22.8148 15.3321 22.8296L15.4459 22.8152ZM9.98967 11.005L10.032 11.4093C10.1351 12.1593 10.3224 12.9054 10.6128 13.5946C10.9013 14.2809 11.2786 14.8758 11.7521 15.3571C12.226 15.8376 12.8115 16.2211 13.4877 16.5145C14.1666 16.8094 14.9005 16.9997 15.6394 17.104L16.0372 17.1473L15.9949 16.7426C15.8925 15.9922 15.7044 15.2473 15.4148 14.5574C15.1255 13.871 14.7482 13.2762 14.2751 12.7957C13.8012 12.3144 13.2154 11.9316 12.5392 11.6378C11.861 11.3429 11.1263 11.1527 10.3878 11.0488L9.98967 11.005ZM23.5038 8.55848C21.7821 8.58817 22.5098 8.49012 21.307 8.72254C20.9066 8.82801 20.5354 8.97802 20.1984 9.17567C19.5703 9.54364 19.0299 10.0937 18.5741 10.7819C18.2533 11.2663 17.9932 11.7893 17.7917 12.3124L17.7763 12.3538C18.6833 12.4714 18.6618 12.4991 19.8726 12.4089C20.1157 12.3905 20.3511 12.3167 20.5908 12.2706C20.9912 12.1651 21.3624 12.0155 21.7002 11.8171C22.3275 11.4495 22.8679 10.8991 23.3245 10.2112C23.6453 9.72678 23.9046 9.20375 24.1069 8.68025L24.1219 8.63845L23.5038 8.55848ZM12.7665 4.88933L12.7773 5.02683C12.8269 5.48231 12.9258 5.92879 13.0831 6.34015C13.2374 6.74406 13.4412 7.09719 13.7001 7.38816C13.9886 7.71395 14.3598 7.97919 14.7972 8.18856C15.6415 8.51826 15.223 8.3874 16.0507 8.5913L16.0399 8.45302C15.9903 7.99832 15.8914 7.55184 15.7349 7.1409C15.5806 6.73659 15.376 6.38347 15.1179 6.09248C14.8287 5.7667 14.4582 5.50146 14.0208 5.29208C13.1758 4.96239 13.5951 5.09323 12.7665 4.88933ZM19.4287 1.39008C19.1583 1.45688 19.3441 1.40531 18.8821 1.585C18.6048 1.71781 18.372 1.88462 18.1924 2.08657C18.0324 2.26704 17.9043 2.48891 17.8066 2.744L17.637 3.40573C17.9081 3.33893 17.7216 3.39049 18.1836 3.2108C18.4609 3.07799 18.6944 2.91119 18.8732 2.70924C19.0336 2.52876 19.1613 2.30689 19.259 2.05181L19.4287 1.39008Z" fill="#484C5B"/>
</svg>
