<svg width="70" height="32" viewBox="0 0 70 32" fill="none" xmlns="http://www.w3.org/2000/svg">
<path d="M43.8046 10.5325C42.8517 10.1733 41.8446 9.99302 40.8305 10.0002C37.551 10.0002 35.2348 11.7095 35.2184 14.1631C35.1979 15.9657 36.8643 16.9815 38.1249 17.5838C39.4182 18.203 39.8507 18.5932 39.8466 19.1467C39.8384 19.9886 38.8136 20.3704 37.8605 20.3704C36.5507 20.3704 35.8354 20.1816 34.7347 19.7087L34.3268 19.5115L33.8615 22.3362C34.6589 22.6798 36.0957 22.9746 37.5797 23C41.0662 23 43.3454 21.3013 43.3721 18.6908C43.4008 17.2508 42.4989 16.1629 40.6009 15.2637C39.4469 14.6806 38.7316 14.2904 38.7316 13.6987C38.7316 13.1749 39.3444 12.615 40.6255 12.615C41.4781 12.5937 42.3254 12.7592 43.1118 13.1006L43.4192 13.2427L43.8845 10.5134L43.8046 10.5325ZM52.3149 10.2292H49.7528C48.9555 10.2292 48.3549 10.4562 48.0065 11.2747L43.079 22.824H46.5655L47.2624 20.9302L51.5176 20.9345C51.618 21.3777 51.9255 22.824 51.9255 22.824H55L52.3149 10.2292ZM30.5021 10.1232H33.8246L31.7462 22.7243H28.4278L30.5021 10.119V10.1232ZM22.0676 17.0684L22.4119 18.818L25.6587 10.2292H29.178L23.9492 22.807H20.4381L17.5685 12.1569C17.522 11.9813 17.4129 11.8305 17.2631 11.7349C16.2288 11.1821 15.133 10.7627 14 10.4858L14.0451 10.2208H19.3927C20.1183 10.2504 20.7025 10.4858 20.8972 11.2875L22.0655 17.0748L22.0676 17.0684ZM48.2155 18.3536L49.5396 14.829C49.5232 14.8672 49.8122 14.1016 49.9803 13.6287L50.2078 14.7166L50.9765 18.3515H48.2135L48.2155 18.3536Z" fill="white"/>
<rect x="0.25" y="0.25" width="69.5" height="31.5" stroke="white" stroke-width="0.5"/>
</svg>
